<?xml version="1.0" encoding="UTF-8" standalone="no"?>
<svg
   xmlns="http://www.w3.org/2000/svg"
   width="67.405998mm"
   height="67.405998mm"
   viewBox="0 0 67.405998 67.405998"
   version="1.1">
    <path
       id="pupil"
       style="fill:#ffff00;"
       d="M 33.78909,36.512991 A 10.91855,10.91855 0 0 1 44.524347,47.61115 10.91855,10.91855 0 0 1 33.426843,58.347085 10.91855,10.91855 0 0 1 22.690231,47.250237 10.91855,10.91855 0 0 1 33.786423,36.512947 L 33.6073,47.430027 Z" />
    <path
       id="eyelid"
       style="fill:#ffff00;"
       d="M 24.614998,28.877823 C 14.621654,31.236761 5.8405424,37.524324 0.41803276,46.525325 l -0.53898567,0.892453 0.52916667,0.900718 C 7.3386788,60.116232 20.00507,67.365382 33.68783,67.365398 c 13.53045,9e-5 26.078231,-7.090236 33.060379,-18.679999 l 0.536917,-0.89245 -0.527097,-0.900205 C 61.402809,37.776507 52.62155,31.379903 42.594263,28.941387 c -0.111082,1.177184 -0.222247,2.354381 -0.333314,3.531565 8.5526,2.225485 16.046898,7.650237 20.864251,15.296743 C 56.675356,57.759745 45.629109,63.861296 33.68783,63.861216 21.60672,63.861203 10.451249,57.618418 4.0395146,47.439482 8.9141289,39.889728 16.41745,34.562938 24.948828,32.410942 24.83765,31.233229 24.726194,30.055534 24.614998,28.877823 Z" />
    <path
       id="exclamation"
       style="fill:#ffff00;"
       d="m 24.879131,0.18298513 h 17.456 L 38.859826,34.978839 c -1.750836,-0.325082 -2.59961,-0.772681 -5.252507,-0.772681 -2.452007,0 -3.501605,0.447599 -5.252408,0.772681 z" />
</svg>
